<?xml version="1.0" standalone="no"?>
<!DOCTYPE svg PUBLIC "-//W3C//DTD SVG 20010904//EN"
 "http://www.w3.org/TR/2001/REC-SVG-20010904/DTD/svg10.dtd">
<svg version="1.0" xmlns="http://www.w3.org/2000/svg"
 width="500.000000pt" height="500.000000pt" viewBox="0 0 500.000000 500.000000"
 preserveAspectRatio="xMidYMid meet">

<g transform="translate(0.000000,500.000000) scale(0.100000,-0.100000)"
fill="#000000" stroke="none">
<path d="M685 3138 c-11 -6 -23 -16 -27 -22 -4 -6 -8 -131 -8 -278 l0 -268
365 0 c201 0 365 3 365 6 0 3 -48 55 -107 116 -129 131 -139 147 -119 185 17
33 45 58 75 68 49 15 87 -13 273 -207 188 -195 207 -219 207 -253 0 -34 -20
-60 -159 -206 -74 -78 -160 -169 -190 -201 -43 -46 -63 -60 -93 -65 -35 -5
-41 -2 -82 41 -25 25 -45 56 -45 68 0 14 42 64 122 145 l122 123 -125 0 c-124
0 -159 -7 -227 -43 -52 -28 -78 -51 -233 -210 -154 -156 -159 -165 -121 -209
14 -17 45 -18 372 -18 l357 0 39 29 c75 55 442 435 458 473 21 48 22 206 2
251 -16 37 -455 477 -477 478 -7 0 -174 2 -369 5 -256 3 -361 1 -375 -8z"/>
<path d="M2296 3060 c-34 -11 -63 -36 -82 -72 -39 -75 6 -145 115 -178 101
-30 130 -76 75 -119 -35 -27 -70 -26 -127 2 l-46 24 -20 -28 -21 -28 33 -24
c64 -49 174 -52 237 -7 39 28 64 84 57 129 -6 38 -66 101 -96 101 -9 0 -38 8
-66 18 -63 23 -82 60 -47 94 26 27 74 29 122 4 l35 -17 22 28 23 28 -23 17
c-44 35 -127 47 -191 28z"/>
<path d="M2600 2835 l0 -225 40 0 39 0 3 151 3 150 69 -107 c80 -122 64 -123
148 14 28 45 55 82 60 82 4 0 8 -65 8 -145 l0 -145 40 0 40 0 0 225 0 225 -44
0 -44 0 -64 -110 c-34 -60 -65 -110 -68 -110 -5 0 -82 116 -89 134 -2 6 -15
28 -28 49 -21 34 -27 37 -68 37 l-45 0 0 -225z"/>
<path d="M3285 3048 c-2 -7 -26 -74 -54 -148 -66 -182 -101 -280 -101 -286 0
-3 19 -4 43 -2 37 3 43 7 52 33 18 54 20 55 121 55 81 0 95 -2 100 -17 23 -69
27 -73 71 -73 l42 0 -30 83 c-17 45 -54 146 -82 225 l-52 142 -53 0 c-33 0
-54 -5 -57 -12z m65 -92 c0 -2 13 -41 30 -87 16 -46 30 -85 30 -86 0 -2 -31
-3 -69 -3 l-68 0 31 90 c17 50 34 90 38 90 5 0 8 -2 8 -4z"/>
<path d="M3630 2834 l0 -225 43 3 42 3 3 83 c3 79 4 82 27 82 30 0 36 -7 89
-95 42 -70 43 -70 91 -73 l48 -3 -23 38 c-13 21 -36 61 -51 89 l-28 50 29 18
c87 51 77 203 -15 242 -23 9 -71 14 -145 14 l-110 0 0 -226z m231 127 c26 -31
24 -57 -6 -86 -20 -21 -34 -25 -79 -25 -50 0 -56 2 -61 23 -4 13 -4 36 -1 53
2 16 5 37 5 48 1 16 8 18 62 14 49 -4 66 -9 80 -27z"/>
<path d="M4012 3023 l3 -38 63 -3 62 -3 0 -185 0 -185 43 3 42 3 3 183 2 182
65 0 65 0 0 40 0 40 -176 0 -175 0 3 -37z"/>
<path d="M2757 2406 c-101 -38 -147 -105 -147 -219 0 -64 4 -79 29 -120 44
-69 96 -99 181 -105 90 -6 144 14 198 72 103 112 71 294 -61 361 -45 23 -153
29 -200 11z m170 -88 c84 -58 84 -207 -1 -259 -35 -22 -125 -26 -159 -7 -99
52 -103 202 -8 265 46 31 122 31 168 1z"/>
<path d="M2212 2188 l3 -223 37 -3 37 -3 3 83 3 83 35 3 c34 3 36 1 83 -83
l48 -85 45 0 c24 0 44 2 44 5 0 3 -21 42 -47 86 l-46 80 35 32 c79 73 70 184
-19 235 -15 8 -65 12 -143 12 l-120 0 2 -222z m232 130 c44 -63 0 -118 -95
-118 l-59 0 0 70 0 70 69 0 c61 0 72 -3 85 -22z"/>
<path d="M3152 2243 c2 -136 6 -174 20 -200 28 -50 73 -76 139 -81 77 -6 102
2 149 44 50 45 60 91 60 269 l0 135 -45 0 -45 0 0 -157 c0 -152 -1 -159 -24
-188 -20 -25 -31 -30 -70 -30 -34 0 -51 6 -68 23 -22 21 -23 31 -26 187 l-3
165 -46 0 -45 0 4 -167z"/>
<path d="M3583 2378 c3 -33 3 -33 65 -36 l62 -3 2 -187 3 -187 40 0 40 0 3
188 2 187 65 0 65 0 0 35 0 35 -176 0 -175 0 4 -32z"/>
<path d="M4000 2185 l0 -225 140 0 140 0 0 40 0 40 -100 0 -100 0 0 60 0 60
90 0 90 0 0 35 0 35 -90 0 -90 0 0 55 0 55 100 0 100 0 0 35 0 35 -140 0 -140
0 0 -225z"/>
</g>
</svg>
